<svg xmlns="http://www.w3.org/2000/svg" xml:space="preserve" id="Layer_1" x="0" y="0" version="1.1" viewBox="0 0 300 105.799"><style>.st1{fill:#e20613}</style><path d="M142.281 76.405c0-.11.024-.178.072-.207a.4.4 0 01.199-.041h.708c.102 0 .175.014.213.041.041.029.059.097.059.207v4.38c0 .457.029.851.089 1.187.059.334.172.613.342.837.169.226.414.393.734.503.317.11.738.164 1.257.164.132 0 .326-.005.579-.016.25-.014.538-.051.861-.113v-6.942c0-.11.024-.178.07-.207a.42.42 0 01.202-.041h.708c.102 0 .164.014.189.041.024.029.035.097.035.207v6.872c0 .315-.067.57-.204.767-.14.196-.393.326-.761.39a10.46 10.46 0 01-.91.1c-.307.019-.587.03-.839.03-.651 0-1.208-.065-1.663-.189-.457-.127-.826-.336-1.111-.627-.283-.291-.49-.675-.619-1.157-.129-.479-.194-1.073-.194-1.781l-.016-4.405zm13.387-.011c0-.11.024-.18.073-.207a.4.4 0 01.199-.041h.651c.1 0 .172.014.21.041.04.027.059.097.059.207v7.378c0 .221-.046.384-.135.489-.091.105-.258.159-.503.159h-.353c-.188 0-.328-.038-.414-.118a1.773 1.773 0 01-.294-.39l-2.6-4.332-.966-1.676h-.035v6.27c0 .11-.022.18-.059.207-.04.027-.113.041-.215.041h-.648a.403.403 0 01-.2-.041c-.048-.027-.072-.097-.072-.207v-7.378c0-.221.046-.384.137-.489.089-.108.256-.159.501-.159h.355c.189 0 .326.038.412.116.089.081.186.21.296.39l2.562 4.286 1.004 1.725h.035v-6.271zm3.095.011c0-.11.021-.178.07-.207a.412.412 0 01.202-.041h.684c.102 0 .173.014.213.041.041.029.06.097.06.207v7.768c0 .11-.019.18-.06.207-.04.027-.11.041-.213.041h-.684a.412.412 0 01-.202-.041c-.049-.027-.07-.097-.07-.207v-7.768zm6.918 7.531c-.065.175-.132.296-.208.366-.075.072-.199.11-.371.118h-.579c-.183 0-.323-.032-.42-.094-.099-.062-.183-.191-.253-.39l-2.656-7.625c-.041-.11-.005-.164.105-.164h.955c.118 0 .194.051.226.154l1.676 5.123.579 1.735h.07l.531-1.725 1.725-5.134c.032-.081.067-.124.108-.137a.576.576 0 01.154-.016h.931c.103 0 .135.054.094.164l-2.667 7.625zm9.296.414c-.027.046-.097.07-.207.07h-3.283c-.401 0-.732-.057-.996-.17a1.696 1.696 0 01-.632-.455 1.61 1.61 0 01-.331-.662 3.296 3.296 0 01-.094-.791v-4.109c0-.274.037-.538.113-.791.072-.25.194-.474.36-.667.164-.191.377-.344.638-.46.258-.113.573-.17.942-.17h3.237c.11 0 .178.024.205.07a.384.384 0 01.043.202v.565c0 .102-.014.172-.043.207-.027.035-.095.053-.205.053h-3.237c-.299 0-.512.065-.644.194-.129.129-.194.336-.194.619v1.453h3.684c.102 0 .167.019.194.059.027.041.041.11.041.213v.495a.41.41 0 01-.041.202c-.027.046-.091.07-.194.07h-3.684v1.959c0 .237.064.43.194.579.132.15.344.226.644.226h3.283c.11 0 .18.019.207.059.027.038.041.11.041.213v.565a.41.41 0 01-.041.202zm1.399-7.579c0-.229.049-.39.145-.49.1-.097.264-.148.493-.148h2.715c.377 0 .721.057 1.031.173a2.228 2.228 0 011.33 1.232c.127.293.188.611.188.958 0 .471-.118.88-.353 1.227a2.036 2.036 0 01-.944.756v.059c.164.045.301.108.407.183.105.075.196.162.271.258.075.099.135.207.183.326.049.118.092.248.129.39l.686 2.492a.275.275 0 01.005.145c-.014.059-.07.089-.172.089h-.886a.394.394 0 01-.129-.024c-.049-.014-.084-.062-.108-.14l-.6-2.231c-.127-.441-.326-.737-.598-.888-.271-.148-.6-.223-.985-.223h-1.558v3.259c0 .11-.022.18-.059.207-.041.027-.11.041-.213.041h-.711a.404.404 0 01-.199-.041c-.049-.027-.07-.097-.07-.207v-7.403zm4.675 1.77c0-.127-.019-.264-.054-.412a1.01 1.01 0 00-.213-.42 1.241 1.241 0 00-.441-.326c-.189-.086-.439-.129-.746-.129h-1.959v2.61h1.865c.286 0 .522-.035.716-.108.191-.07.35-.167.476-.288a1.05 1.05 0 00.272-.425c.057-.16.084-.327.084-.502zm8.381 3.635c0 .411-.075.764-.231 1.063a2.033 2.033 0 01-.624.74 2.797 2.797 0 01-.92.43 4.3 4.3 0 01-1.117.14c-.487 0-.998-.041-1.534-.124a5.063 5.063 0 01-1.512-.476c-.095-.041-.114-.124-.06-.248l.32-.721c.046-.094.118-.121.213-.084.851.372 1.636.554 2.36.554.662 0 1.136-.11 1.423-.336.288-.223.43-.519.43-.89 0-.189-.04-.355-.118-.501a1.306 1.306 0 00-.347-.401 2.807 2.807 0 00-.568-.344 12.913 12.913 0 00-.785-.336 14.392 14.392 0 01-1.155-.506 4.349 4.349 0 01-.834-.533 1.987 1.987 0 01-.508-.624 1.767 1.767 0 01-.17-.791c0-.654.216-1.179.649-1.577.433-.398 1.079-.598 1.937-.598.197 0 .409.011.635.03.229.022.457.051.681.089.223.041.441.089.654.148.213.059.409.129.592.207.095.049.121.113.081.202l-.271.754c-.022.064-.045.1-.07.107-.024.008-.054.003-.095-.013a7.517 7.517 0 00-1.186-.313c-.39-.067-.745-.1-1.068-.1-.449 0-.778.094-.99.283a.883.883 0 00-.32.686c0 .172.04.323.123.452.084.131.213.255.385.374.172.118.387.234.648.353.261.118.568.253.92.401.299.127.594.258.885.396.29.14.552.301.78.49.229.191.412.414.554.675.144.259.213.574.213.942zm1.357-5.771c0-.11.024-.178.072-.207a.4.4 0 01.2-.041h.686c.102 0 .172.014.213.041.038.029.059.097.059.207v7.768c0 .11-.022.18-.059.207-.04.027-.11.041-.213.041h-.686a.4.4 0 01-.2-.041c-.048-.027-.072-.097-.072-.207v-7.768zm3.756 8.016c-.229 0-.393-.049-.493-.148-.096-.097-.145-.261-.145-.49v-7.001c0-.225.049-.39.145-.489.1-.097.264-.145.493-.145l2.158-.014c.616 0 1.151.094 1.611.286.463.188.85.46 1.163.82.317.358.552.788.71 1.297a5.76 5.76 0 01.234 1.695c0 .614-.07 1.179-.21 1.693-.143.517-.36.958-.656 1.329-.296.369-.67.657-1.122.861-.452.205-.99.307-1.612.307h-2.276zm4.628-4.169c0-.414-.043-.807-.127-1.173a2.622 2.622 0 00-.412-.956 2.022 2.022 0 00-.78-.646c-.326-.156-.729-.234-1.211-.234h-1.499v6.068h1.536c.479 0 .88-.078 1.197-.231.32-.154.573-.366.767-.638.194-.272.328-.592.409-.966.08-.373.12-.782.12-1.224zm8.086 4.169a.656.656 0 01-.202-.024c-.048-.014-.085-.07-.118-.164l-.554-1.676h-3.2l-.554 1.676a.34.34 0 01-.095.143c-.041.03-.102.046-.188.046h-.91c-.086 0-.142-.024-.167-.076a.242.242 0 010-.172l2.621-7.521c.073-.205.151-.339.237-.407.086-.067.231-.105.436-.113h.39c.237 0 .399.038.485.113.086.076.162.21.223.407l2.634 7.521a.214.214 0 010 .172c-.024.051-.075.076-.153.076h-.885zm-1.948-5.218l-.533-1.676h-.059l-.495 1.617-.719 2.338h2.524l-.718-2.279zm4.711 5.218c-.229 0-.393-.049-.493-.148-.097-.097-.145-.261-.145-.49v-7.001c0-.225.048-.39.145-.489.1-.097.264-.145.493-.145l2.158-.014c.617 0 1.152.094 1.612.286.46.188.847.46 1.162.82.315.358.552.788.711 1.297a5.76 5.76 0 01.234 1.695c0 .614-.07 1.179-.213 1.693-.14.517-.358.958-.654 1.329-.296.369-.67.657-1.122.861-.452.205-.99.307-1.612.307h-2.276zm4.626-4.169c0-.414-.04-.807-.124-1.173a2.638 2.638 0 00-.411-.956 2.044 2.044 0 00-.78-.646c-.326-.156-.729-.234-1.211-.234h-1.499v6.068h1.536c.479 0 .877-.078 1.197-.231a1.99 1.99 0 00.767-.638c.194-.272.328-.592.406-.966.081-.373.119-.782.119-1.224zm8.328 4.098c-.027.046-.095.07-.205.07h-3.283c-.401 0-.735-.057-.998-.17a1.688 1.688 0 01-.632-.455 1.631 1.631 0 01-.329-.662 3.198 3.198 0 01-.094-.791v-4.109c0-.274.035-.538.11-.791.076-.25.197-.474.361-.667a1.8 1.8 0 01.638-.46c.258-.113.573-.17.945-.17h3.234c.11 0 .18.024.207.07a.407.407 0 01.041.202v.565c0 .102-.014.172-.041.207-.027.035-.097.053-.207.053h-3.234c-.299 0-.514.065-.643.194s-.194.336-.194.619v1.453h3.681c.102 0 .17.019.197.059.026.041.04.11.04.213v.495a.422.422 0 01-.04.202c-.027.046-.095.07-.197.07h-3.681v1.959c0 .237.065.43.194.579.129.15.344.226.643.226h3.283c.11 0 .178.019.205.059.029.038.043.11.043.213v.565a.396.396 0 01-.044.202zm4.647-7.579c0-.229.048-.39.148-.49.097-.097.261-.148.49-.148h2.75c.377 0 .727.059 1.044.178.32.118.592.288.821.508.228.221.409.482.538.786.129.301.194.638.194 1.009 0 .213-.035.466-.105.761a2.435 2.435 0 01-.395.843 2.317 2.317 0 01-.81.68c-.347.183-.791.277-1.335.277h-2.137v2.998c0 .11-.019.18-.059.207-.038.027-.11.041-.213.041h-.659a.42.42 0 01-.202-.041c-.045-.027-.07-.097-.07-.207v-7.402zm4.722 1.923a1.81 1.81 0 00-.07-.476 1.219 1.219 0 00-.256-.468 1.435 1.435 0 00-.495-.353c-.21-.094-.479-.143-.81-.143h-1.875v2.844h1.91c.56 0 .966-.129 1.217-.388.253-.26.379-.599.379-1.016zm7.343 5.727a.656.656 0 01-.202-.024c-.048-.014-.086-.07-.118-.164l-.554-1.676h-3.199l-.554 1.676a.34.34 0 01-.094.143.317.317 0 01-.188.046h-.91c-.087 0-.143-.024-.167-.076a.232.232 0 010-.172l2.621-7.521c.072-.205.15-.339.237-.407.085-.067.231-.105.436-.113h.39c.237 0 .398.038.484.113.087.076.162.21.224.407l2.634 7.521a.214.214 0 010 .172c-.024.051-.075.076-.154.076h-.886zm-1.948-5.218l-.533-1.676h-.059l-.495 1.617-.719 2.338h2.524l-.718-2.279zm4.071-2.432c0-.229.051-.39.148-.49.1-.097.261-.148.49-.148h2.715c.38 0 .724.057 1.033.173.312.113.578.274.802.484.226.208.401.457.527.748.124.293.188.611.188.958 0 .471-.118.88-.355 1.227a2.011 2.011 0 01-.944.756v.059c.167.045.301.108.409.183.105.075.196.162.272.258.072.099.135.207.183.326.046.118.089.248.129.39l.684 2.492a.24.24 0 01.005.145c-.011.059-.068.089-.17.089h-.885a.39.39 0 01-.129-.024c-.048-.014-.083-.062-.108-.14l-.602-2.231c-.124-.441-.323-.737-.595-.888-.272-.148-.6-.223-.985-.223h-1.561v3.259c0 .11-.019.18-.056.207-.041.027-.114.041-.216.041h-.707a.403.403 0 01-.2-.041c-.048-.027-.072-.097-.072-.207v-7.403zm4.677 1.77c0-.127-.019-.264-.054-.412a1.02 1.02 0 00-.212-.42 1.269 1.269 0 00-.441-.326c-.191-.086-.439-.129-.746-.129h-1.959v2.61h1.865c.283 0 .522-.035.713-.108.194-.07.353-.167.479-.288a1.05 1.05 0 00.272-.425c.054-.16.083-.327.083-.502zm8.097 5.88a.639.639 0 01-.199-.024c-.049-.014-.086-.07-.118-.164l-.554-1.676h-3.199l-.557 1.676a.299.299 0 01-.094.143c-.038.03-.102.046-.188.046h-.91c-.086 0-.14-.024-.164-.076a.214.214 0 010-.172l2.621-7.521c.07-.205.148-.339.237-.407.087-.067.231-.105.436-.113h.39c.234 0 .396.038.485.113.086.076.158.21.223.407l2.631 7.521a.214.214 0 010 .172c-.024.051-.075.076-.154.076h-.886zm-1.948-5.218l-.53-1.676h-.06l-.495 1.617-.721 2.338h2.527l-.721-2.279zm9.375-2.809c0-.11.024-.18.07-.207a.417.417 0 01.202-.041h.648c.102 0 .175.014.213.041.041.027.059.097.059.207v7.378c0 .221-.046.384-.135.489-.091.105-.258.159-.503.159h-.352c-.189 0-.328-.038-.415-.118a1.8 1.8 0 01-.296-.39l-2.596-4.332-.969-1.676h-.035v6.27c0 .11-.019.18-.06.207-.038.027-.11.041-.213.041h-.648a.415.415 0 01-.202-.041c-.045-.027-.07-.097-.07-.207v-7.378c0-.221.046-.384.137-.489.089-.108.256-.159.5-.159h.355c.189 0 .326.038.412.116.089.081.186.21.296.39l2.562 4.286 1.004 1.725h.035v-6.271zm8.263 8.027a.639.639 0 01-.199-.024c-.049-.014-.089-.07-.118-.164l-.557-1.676h-3.199l-.554 1.676a.314.314 0 01-.094.143c-.041.03-.102.046-.188.046h-.91c-.087 0-.143-.024-.164-.076a.214.214 0 010-.172l2.618-7.521c.072-.205.15-.339.237-.407.089-.067.234-.105.438-.113h.39c.234 0 .396.038.482.113.086.076.161.21.225.407l2.632 7.521a.214.214 0 010 .172c-.024.051-.075.076-.154.076h-.885zm-1.948-5.218l-.53-1.676h-.059l-.497 1.617-.719 2.338h2.526l-.721-2.279zm9.614 5.147c-.027.046-.094.07-.204.07h-3.283c-.401 0-.735-.057-.998-.17a1.664 1.664 0 01-.63-.455 1.61 1.61 0 01-.331-.662 3.198 3.198 0 01-.094-.791v-4.109c0-.274.035-.538.11-.791.075-.25.196-.474.361-.667.167-.191.38-.344.638-.46.261-.113.573-.17.945-.17h3.234c.11 0 .18.024.207.07.027.046.04.114.04.202v.565c0 .102-.013.172-.04.207-.027.035-.097.053-.207.053h-3.234c-.298 0-.514.065-.644.194-.129.129-.194.336-.194.619v1.453h3.681c.102 0 .169.019.196.059.027.041.041.11.041.213v.495a.41.41 0 01-.041.202c-.027.046-.094.07-.196.07h-3.681v1.959c0 .237.065.43.194.579.129.15.345.226.644.226h3.283c.11 0 .177.019.204.059.03.038.043.11.043.213v.565a.396.396 0 01-.044.202zm6.7-7.956c0-.11.024-.18.073-.207a.403.403 0 01.2-.041h.651c.102 0 .172.014.213.041.038.027.056.097.056.207v7.378c0 .221-.043.384-.134.489-.092.105-.258.159-.501.159h-.355c-.188 0-.326-.038-.414-.118a1.775 1.775 0 01-.293-.39l-2.599-4.332-.966-1.676h-.035v6.27c0 .11-.022.18-.059.207-.041.027-.11.041-.213.041h-.651a.4.4 0 01-.199-.041c-.049-.027-.072-.097-.072-.207v-7.378c0-.221.045-.384.137-.489.089-.108.258-.159.5-.159h.355c.188 0 .326.038.414.116.086.081.183.21.293.39l2.562 4.286 1.004 1.725h.035v-6.271zm8.548 5.782c0 .411-.078.764-.231 1.063-.153.302-.36.547-.624.74a2.797 2.797 0 01-.92.43c-.353.094-.724.14-1.117.14a10 10 0 01-1.534-.124 5.063 5.063 0 01-1.512-.476c-.095-.041-.113-.124-.059-.248l.317-.721c.049-.094.118-.121.215-.084.848.372 1.636.554 2.36.554.662 0 1.136-.11 1.423-.336.286-.223.431-.519.431-.89 0-.189-.04-.355-.118-.501a1.278 1.278 0 00-.35-.401 2.894 2.894 0 00-.565-.344 13.536 13.536 0 00-.786-.336 14.785 14.785 0 01-1.157-.506 4.228 4.228 0 01-.831-.533 2.004 2.004 0 01-.509-.624 1.767 1.767 0 01-.172-.791c0-.654.218-1.179.651-1.577.433-.398 1.079-.598 1.934-.598a7.773 7.773 0 011.973.267c.213.059.409.129.589.207.097.049.123.113.083.202l-.272.754c-.024.064-.045.1-.07.107-.024.008-.054.003-.094-.013a7.545 7.545 0 00-1.186-.313 6.35 6.35 0 00-1.069-.1c-.449 0-.78.094-.993.283a.88.88 0 00-.317.686c0 .172.041.323.124.452.083.131.21.255.382.374.175.118.39.234.651.353.258.118.565.253.92.401.299.127.595.258.885.396.29.14.552.301.78.49.226.191.412.414.554.675.145.259.214.574.214.942zm6.771 2.174c-.03.046-.097.07-.208.07h-3.283c-.401 0-.732-.057-.996-.17a1.688 1.688 0 01-.632-.455 1.598 1.598 0 01-.331-.662 3.296 3.296 0 01-.095-.791v-4.109c0-.274.038-.538.113-.791.072-.25.194-.474.361-.667.164-.191.377-.344.638-.46.258-.113.573-.17.942-.17h3.237c.11 0 .177.024.204.07a.405.405 0 01.043.202v.565c0 .102-.016.172-.043.207-.027.035-.094.053-.204.053h-3.237c-.298 0-.512.065-.644.194-.129.129-.194.336-.194.619v1.453h3.684c.102 0 .167.019.194.059.027.041.041.11.041.213v.495a.41.41 0 01-.041.202c-.027.046-.091.07-.194.07h-3.684v1.959c0 .237.065.43.194.579.132.15.345.226.644.226h3.283c.11 0 .178.019.208.059.026.038.04.11.04.213v.565a.422.422 0 01-.04.202zM168.326 64.272c0 1.071-.237 1.988-.711 2.75-.473.764-1.354 1.316-2.637 1.652-.611.154-1.283.267-2.018.344-.732.076-1.467.129-2.201.159-.732.03-1.421.053-2.061.07-.643.014-1.162.022-1.56.022-2.629 0-4.882-.221-6.762-.665-1.881-.441-3.417-1.197-4.609-2.269-1.192-1.071-2.061-2.491-2.613-4.265-.549-1.773-.826-4.004-.826-6.695l-.045-17.79c0-.367.091-.619.277-.756.183-.137.441-.207.778-.207h4.908c.458 0 .756.062.893.183.137.124.208.383.208.78V55.79c0 1.254.105 2.346.32 3.278.213.933.594 1.703 1.146 2.314.549.613 1.292 1.063 2.223 1.354.934.29 2.134.436 3.601.436.213 0 .503-.008.872-.022.366-.016.77-.032 1.214-.049.444-.013.901-.045 1.375-.091.474-.045.91-.113 1.308-.204v-25.22c0-.367.083-.619.253-.756.167-.137.436-.207.801-.207h4.86c.46 0 .74.062.847.183.108.124.162.383.162.78v26.686zm11.966-15.497v18.982c0 .398-.067.657-.207.78-.137.121-.42.183-.847.183h-4.814c-.366 0-.635-.07-.802-.207-.169-.137-.253-.39-.253-.756V39.788c0-1.192.215-2.025.643-2.5.428-.473 1.205-.71 2.338-.71h1.924c.46 0 .851.023 1.171.069.32.047.603.147.847.299.245.152.474.367.689.642.213.274.458.627.732 1.055l11.74 18.064h.229V37.541c0-.367.067-.619.204-.756.14-.139.42-.207.85-.207h4.814c.702 0 1.055.32 1.055.963v28.014c0 .98-.199 1.752-.597 2.317-.396.565-1.192.847-2.384.847H195.7c-.46 0-.851-.024-1.171-.07a2.156 2.156 0 01-.847-.296 2.927 2.927 0 01-.689-.619 11.454 11.454 0 01-.732-1.033l-11.74-17.927h-.229zm32.163 19.762c-.137.121-.436.183-.893.183h-4.859c-.369 0-.635-.07-.802-.207-.169-.137-.253-.39-.253-.756v-30.17c0-.367.084-.619.253-.756.167-.137.433-.207.802-.207h4.859c.458 0 .756.062.893.183.137.124.207.383.207.78v30.17c0 .398-.07.656-.207.78zm47.059-6.512h-10.5l-1.787 5.823c-.091.307-.223.527-.39.665-.169.137-.466.207-.893.207h-5.366c-.336 0-.544-.091-.619-.275-.078-.186-.084-.398-.024-.643l9.539-28.749c.151-.519.328-.939.527-1.261.197-.322.428-.573.686-.756.261-.184.565-.313.918-.39a5.867 5.867 0 011.216-.114h2.75c.52 0 .964.023 1.329.069.369.046.689.16.964.344.274.183.511.443.711.779.199.336.39.78.573 1.329l9.537 28.749a.983.983 0 010 .598c-.06.212-.258.32-.595.32h-5.457c-.336 0-.619-.038-.847-.116-.229-.075-.39-.282-.482-.619l-1.79-5.96zm-8.847-5.64h7.198l-3.439-12.425h-.275l-3.484 12.425zm-8.985-13.802a8.834 8.834 0 00-2.131-3.163c-.933-.887-2.064-1.581-3.393-2.087-1.329-.503-2.82-.756-4.47-.756h-11.234c-1.1 0-1.832.253-2.201.756-.366.506-.549 1.185-.549 2.041v28.382c0 .366.083.619.253.756.167.137.433.207.801.207h4.814c.458 0 .756-.054.893-.162.137-.105.207-.374.207-.801V42.722h5.96c.918 0 1.674.145 2.268.435.598.291 1.071.659 1.424 1.1.349.444.586.918.71 1.422.121.504.183.97.183 1.398 0 1.224-.366 2.255-1.101 3.096-.734.841-1.881 1.261-3.439 1.261h-2.527a1.034 1.034 0 00-.829 1.655l2.677 3.571c.095.124.216.229.366.304.148.075.403.11.403.11 2.567 0 4.623-.399 6.168-1.192 1.542-.796 2.721-1.749 3.53-2.866.81-1.117 1.337-2.263 1.582-3.439.245-1.176.366-2.164.366-2.957.004-1.468-.241-2.812-.731-4.037zm58.032 24.573l-8.688-11.587c1.272-.729 2.282-1.576 2.992-2.554.81-1.117 1.335-2.263 1.582-3.439.242-1.176.366-2.164.366-2.957 0-1.468-.245-2.812-.734-4.036a8.872 8.872 0 00-2.131-3.163c-.933-.887-2.064-1.581-3.393-2.087-1.329-.503-2.82-.756-4.47-.756h-11.234c-1.1 0-1.835.253-2.202.756-.366.506-.552 1.185-.552 2.041v28.382c0 .366.087.619.253.756.167.137.436.207.802.207h4.814c.46 0 .759-.054.896-.162.137-.105.204-.374.204-.801V42.722h5.963c.915 0 1.674.145 2.269.435.598.291 1.071.659 1.421 1.1.353.444.589.918.711 1.422.123.504.185.97.185 1.398 0 1.224-.369 2.255-1.1 3.096-.734.841-1.881 1.261-3.439 1.261h-2.527c-.379 0-.745.21-.925.572-.183.362-.132.78.097 1.083l10.548 14.068a3.916 3.916 0 003.124 1.563h4.389c.804 0 1.261-.918.779-1.564z" fill="#1d1d1b"/><path d="M125.518 34.263c-.095-.192-.385-.117-.374.098a21.63 21.63 0 01-.14 3.976c-.982 7.694-5.82 14.459-12.324 18.363-.409.245-.447.813-.11 1.152l3.934 3.928c.414.417 1.073.46 1.561.129 5.807-3.934 9.625-10.588 9.625-18.13a21.816 21.816 0 00-2.172-9.516zm-114.62 46c0 5.08 2.602 9.544 6.539 12.154.353.234.805-.054.805-.479V.975A.978.978 0 0017.264 0h-5.39a.975.975 0 00-.977.975v79.288zM0 69.32c0 5.058 2.583 9.509 6.496 12.124.353.234.799-.056.799-.479V.975A.974.974 0 006.321 0H.977A.975.975 0 000 .975V69.32z" class="st1"/><path d="M123.206 32.833c0-3.409-.78-6.637-2.171-9.515-.094-.194-.385-.117-.374.097a21.55 21.55 0 01-.14 3.977c-1.192 9.337-8.059 17.302-16.691 20.448-.425.156-.581.694-.258 1.015l4.036 4.036c.417.417 1.041.576 1.593.363 8.193-3.168 14.005-11.112 14.005-20.421z" class="st1"/><path d="M117.265 29.184a21.836 21.836 0 00.941-10.944 21.764 21.764 0 00-2.626-7.298 22.056 22.056 0 00-2.642-3.649C108.929 2.819 103.109 0 96.627 0H55.699a.977.977 0 00-.977.975v75.636H29.185V.975A.974.974 0 0028.21 0h-5.362a.976.976 0 00-.977.975V91.21c0 2.658.724 5.145 1.967 7.292a14.631 14.631 0 005.347 5.341 14.506 14.506 0 007.276 1.957h46.473a.979.979 0 00.977-.977V29.184h25.342c-2.898 5.051-9.02 8.222-15.351 8.977-.377.046-.514.514-.245.783l4.074 4.071a2.048 2.048 0 001.706.584c8.289-1.063 15.124-6.762 17.828-14.415zm-88.08 54.725h32.836V7.295h34.606c3.694 0 7.06 1.386 9.63 3.649h-39.66a.979.979 0 00-.977.977v75.638H29.185v-3.65zM77.571 21.89a.974.974 0 00-.974.976v75.636H36.433a7.27 7.27 0 01-6.283-3.649h41.837a.975.975 0 00.977-.974V18.241h37.779c.302 1.168.476 2.387.476 3.649H77.571z" class="st1"/></svg>